<?xml version="1.0" encoding="utf-8"?>
<!-- Generator: Adobe Illustrator 23.1.1, SVG Export Plug-In . SVG Version: 6.00 Build 0)  -->
<svg version="1.1" id="Layer_1" xmlns="http://www.w3.org/2000/svg" xmlns:xlink="http://www.w3.org/1999/xlink" x="0px" y="0px"
	 viewBox="0 0 471.1 471.1" style="enable-background:new 0 0 471.1 471.1;" xml:space="preserve">
	 <animateTransform attributeType="xml" attributeName="transform" type="rotate" from="0" to="360" dur="4s" begin="0" repeatCount="indefinite" />
<style type="text/css">
	.st0{fill:none;}
	.st1{fill:#3B2314;}
	.st2{fill:#F1F1F2;}
</style>
<g>
	
		<ellipse transform="matrix(0.7071 -0.7071 0.7071 0.7071 -97.5593 235.5315)" class="st0" cx="235.5" cy="235.5" rx="162.9" ry="162.9"/>
	<path class="st1" d="M215.3,72.3l0.9-62.7l22.5,0.3c12.8,0.2,19.5,5.8,19.4,15.9c-0.1,7.7-4.6,11.8-10,13.3l0,0.3
		c7.8,1.5,12.7,6.6,12.6,15.2c-0.2,11.2-9,18.2-21.2,18.1L215.3,72.3z M236.4,61.7c4.6,0.1,7.7-2.2,7.7-7.9c0.1-5.2-3-8.1-7.6-8.1
		l-4.8-0.1l-0.2,16.1L236.4,61.7z M234.9,35.4c4.4,0.1,7.2-2.1,7.3-7.4c0.1-5-2.7-7.5-7.1-7.6l-3,0l-0.2,15L234.9,35.4z"/>
	<path class="st1" d="M293.2,70.6l-11.3-3.5l-5.3,10.5L262,73l29.5-56.5l23.6,7.4l-8.2,63.2l-15.4-4.8L293.2,70.6z M291.7,46.8
		l-4.6,9.7l8,2.5l1.8-10.7c1.7-10.2,3.5-17,3.5-17l-1.9-0.6C298.4,31,296,37.7,291.7,46.8z"/>
	<path class="st1" d="M344.8,36.8l13.5,9.2l-5.1,13.2c-2.6,6.9-7.5,15.5-7.5,15.5l0.5,0.4c0,0,6.4-7.7,11.9-12.6l10.5-9.4l12.9,8.9
		l-35.5,51.7l-11-7.6L357,74l-0.7-0.5c0,0-4.6,5.3-8.1,9.2l-7.1,7.8l-8.7-6l4.5-9.5c2.3-4.8,5.8-10.9,5.8-10.9l-0.7-0.5l-22,32.1
		l-10.6-7.3L344.8,36.8z"/>
	<path class="st1" d="M402.8,110.8c3-2.5,3.9-5.6,0.9-9.3c-2.3-2.8-5.9-3.5-8.6-1.3c-2.9,2.3-3.3,4.6-1.1,9.6l2.9,6.2
		c5.2,11.4,4,18.1-3.8,24.3c-10.6,8.4-22.2,5.8-31.1-5.3c-9.2-11.5-9.7-22.8,0.4-30.6l9.4,11.7c-3.6,3.3-3.9,6.9-0.3,11.4
		c2.6,3.2,6.8,4.6,10,2.1c3.3-2.7,3.3-5.1,0.6-10.5l-3.1-6.6c-3.8-8-3.5-16.7,4.8-23.4c8.5-6.8,20.2-5.8,29.2,5.3
		c8.6,10.7,8.3,21.6-0.6,28.6L402.8,110.8z"/>
	<path class="st1" d="M385.9,172.7l-5.9-14.9l58.3-23.2l14.7,36.9l-11.6,4.6l-8.7-21.9l-13.6,5.4l8.5,21.3l-11.6,4.6l-8.5-21.3
		L385.9,172.7z"/>
	<path class="st1" d="M458.9,197.8l3.2,39.3l-12.4,1l-1.9-23.3l-12.9,1l1.9,23l-12.3,1l-1.9-23l-12.5,1l2,24.1l-12.3,1l-3.3-40.1
		L458.9,197.8z"/>
	<path class="st1" d="M437.8,286.6c3.8,0.7,6.8-0.5,7.8-5.2c0.8-3.5-1.1-6.8-4.4-7.5c-3.6-0.8-5.7,0.4-8.1,5.2l-3,6.1
		c-5.5,11.2-11.5,14.5-21.2,12.4c-13.2-2.9-18.5-13.6-15.5-27.5c3.1-14.4,11.5-21.9,24-19.1l-3.2,14.7c-4.8-0.7-7.8,1.3-9.1,6.9
		c-0.9,4,0.7,8.2,4.8,9.1c4.2,0.9,6-0.7,8.5-6.1l3.2-6.6c3.8-8,10.8-13.3,21.2-11c10.7,2.3,17.3,12,14.3,26
		c-2.9,13.4-11.5,20.1-22.5,17.6L437.8,286.6z"/>
	<path class="st1" d="M410.6,359l6.9-12.4l-43.8-24.5l7.9-14.1l43.8,24.5l7-12.4l10.9,6.1l-21.8,38.9L410.6,359z"/>
	<!-- A bunch of padded h's -->
	<!-- <path class="st1" d="M377.8,369.8l9.2-8.8l7.9,8.2l-5.3,5.1c-3.7,3.6-3.6,5.6,0.2,9.5l5.1,5.3l-10.1,9.7l-9.6-10L364,399.5
		l-8.2-8.5l10.9-10.5l-10.2-10.6c-3.2-3.3-5.4-3.8-9.9,0.5c-1.6,1.5-2.9,3.1-4.9,6.1l-8.1-8.5c1.4-2.2,3.8-5.7,8.5-10.2
		c7-6.8,15.7-8.8,23.7-0.6L377.8,369.8z"/>
	<path class="st1" d="M332.4,405.5l11.3-5.8l5.2,10.2l-6.6,3.3c-4.6,2.3-5.1,4.3-2.6,9.1l3.3,6.5l-12.5,6.3l-6.3-12.4l-13.7,6.9
		l-5.3-10.5l13.5-6.8l-6.6-13.1c-2.1-4.1-4.1-5.2-9.6-2.4c-2,1-3.7,2.1-6.5,4.4l-5.3-10.5c2-1.7,5.3-4.3,11.1-7.3
		c8.7-4.4,17.6-3.9,22.8,6.4L332.4,405.5z"/>
	<path class="st1" d="M278.6,426.4l12.5-2.2l2,11.2l-7.3,1.3c-5.1,0.9-6.1,2.6-5.2,8l1.2,7.2l-13.8,2.4l-2.4-13.7l-15.1,2.6l-2-11.6
		l14.9-2.6l-2.5-14.5c-0.8-4.5-2.4-6.2-8.5-5.1c-2.2,0.4-4.2,1-7.5,2.3l-2-11.6c2.4-1.1,6.3-2.6,12.8-3.7c9.6-1.7,18,1.5,19.9,12.8
		L278.6,426.4z"/>
	<path class="st1" d="M221.1,430.6l12.6,1.5l-1.4,11.3l-7.3-0.9c-5.1-0.6-6.6,0.8-7.3,6.1l-0.9,7.2l-13.9-1.7l1.7-13.8l-15.2-1.9
		l1.4-11.7l15,1.8l1.8-14.6c0.6-4.6-0.5-6.6-6.6-7.3c-2.2-0.3-4.3-0.3-7.9,0l1.4-11.6c2.6-0.3,6.8-0.7,13.3,0.1
		c9.7,1.2,16.8,6.6,15.4,18L221.1,430.6z"/>
	<path class="st1" d="M164.8,418l11.6,5.2l-4.6,10.4l-6.7-3c-4.7-2.1-6.6-1.2-8.8,3.7l-3,6.7l-12.8-5.7l5.6-12.7l-14-6.2l4.8-10.8
		l13.8,6.1l6-13.4c1.9-4.2,1.4-6.5-4.2-9c-2-0.9-4-1.5-7.5-2.3l4.8-10.7c2.6,0.4,6.7,1.4,12.7,4c8.9,4,14.1,11.2,9.4,21.7L164.8,418
		z"/>
	<path class="st1" d="M114.7,389.4l9.6,8.3l-7.5,8.6l-5.6-4.8c-3.9-3.4-5.9-3.1-9.5,1L97,408l-10.6-9.2l9.1-10.5L84,378.3l7.7-8.9
		l11.4,9.9l9.6-11.1c3-3.5,3.3-5.8-1.4-9.8c-1.7-1.5-3.4-2.6-6.5-4.4l7.7-8.9c2.3,1.2,6,3.2,10.9,7.5c7.4,6.4,10.2,14.9,2.7,23.5
		L114.7,389.4z"/>
	<path class="st1" d="M75.1,347.5l6.8,10.8l-9.7,6.1l-3.9-6.2c-2.7-4.4-4.8-4.7-9.3-1.8l-6.2,3.9l-7.5-11.9l11.7-7.4l-8.2-13l10-6.3
		l8,12.8l12.4-7.8c3.9-2.4,4.8-4.6,1.5-9.8c-1.2-1.9-2.5-3.5-5-6.1l9.9-6.2c1.9,1.8,4.8,4.8,8.3,10.4c5.2,8.3,5.5,17.2-4.2,23.3
		L75.1,347.5z"/>
	<path class="st1" d="M49.4,295.8l3.3,12.3l-11,3l-1.9-7.1c-1.3-5-3.2-5.8-8.4-4.4l-7,1.9l-3.7-13.5l13.4-3.6l-4-14.8l11.4-3.1
		l3.9,14.6l14.2-3.8c4.4-1.2,5.9-3,4.3-8.9c-0.6-2.1-1.3-4.1-3-7.3l11.3-3.1c1.3,2.3,3.2,6,4.9,12.4c2.5,9.4,0.2,18-10.9,21
		L49.4,295.8z"/>
	<path class="st1" d="M40,239l-0.4,12.7l-11.4-0.4l0.2-7.4c0.2-5.2-1.4-6.5-6.8-6.7l-7.3-0.2l0.4-14l13.9,0.4l0.5-15.3l11.8,0.4
		l-0.5,15.1l14.7,0.5c4.6,0.1,6.5-1.1,6.7-7.3c0.1-2.2-0.1-4.3-0.7-7.8l11.7,0.4c0.6,2.6,1.3,6.7,1.1,13.2c-0.3,9.8-5,17.3-16.5,17
		L40,239z"/>
	<path class="st1" d="M47.4,181.7l-4.1,12l-10.8-3.7l2.4-7c1.7-4.9,0.6-6.6-4.5-8.4l-6.9-2.3l4.5-13.3l13.1,4.5l4.9-14.5l11.2,3.8
		l-4.9,14.3l13.9,4.7c4.3,1.5,6.6,0.8,8.5-5c0.7-2.1,1.1-4.1,1.6-7.7l11.1,3.8c-0.2,2.6-0.7,6.8-2.8,13c-3.1,9.2-9.9,15.1-20.8,11.4
		L47.4,181.7z"/>
	<path class="st1" d="M71.3,129.2l-7.4,10.3l-9.2-6.7l4.3-6c3-4.2,2.5-6.2-1.9-9.3l-5.9-4.3l8.2-11.4l11.2,8.1l9-12.4l9.6,6.9
		l-8.8,12.2l11.9,8.6c3.7,2.7,6,2.7,9.6-2.3c1.3-1.8,2.3-3.6,3.8-6.9l9.5,6.9c-1,2.4-2.7,6.3-6.5,11.6c-5.7,7.9-13.9,11.5-23.2,4.8
		L71.3,129.2z"/>
	<path class="st1" d="M109.5,86l-10.1,7.7l-6.9-9.1l5.9-4.5c4.1-3.1,4.2-5.2,0.9-9.5l-4.4-5.8l11.1-8.5l8.4,11l12.2-9.3l7.2,9.4
		l-12,9.2l8.9,11.7c2.8,3.7,5,4.4,9.9,0.6c1.8-1.3,3.2-2.8,5.6-5.5l7.1,9.3c-1.6,2.1-4.4,5.2-9.6,9.2c-7.8,5.9-16.6,7-23.6-2.1
		L109.5,86z"/>
	<path class="st1" d="M158.6,55.7l-11.9,4.4l-4-10.7l6.9-2.6c4.8-1.8,5.5-3.7,3.7-8.8l-2.5-6.8l13.1-4.9l4.8,13l14.4-5.3l4.1,11.1
		L173,50.3l5.1,13.8c1.6,4.3,3.5,5.6,9.2,3.5c2.1-0.8,3.9-1.7,7-3.6l4.1,11c-2.2,1.5-5.7,3.7-11.9,6c-9.1,3.4-17.9,1.8-21.9-8.9
		L158.6,55.7z"/> -->
</g>
<g>
	<!-- The Date -->
		<ellipse transform="matrix(0.7071 -0.7071 0.7071 0.7071 -97.0909 235.7255)" class="st0" cx="236" cy="235.1" rx="118.1" ry="118.1"/>
	<path class="st1" d="M131.4,309.3c1.2-0.5,4.3-1.7,2.6-4.2c-1.8-2.7-4.7-1.5-6.3-0.8l-20.2,8.3l-5-7.4l19.9-8.2
		c1.3-0.5,5.1-1.9,8.5-1.2c4.6,1,7.5,4.3,9.2,6.8c2.1,3.1,3.6,6.9,1.7,10.2c-1.1,2-3.9,3.1-5.4,3.7L131.4,309.3z"/>
	<path class="st1" d="M94.9,285.4l19.1-2.7c1.7-0.3,3.5-0.6,4.5-1.6c1.4-1.4,1.5-3.4,0.8-5.5c-1.9-5.3-6.7-5.3-10-4.9l-18.8,2.6
		l-2.9-8.1l18.6-2.6c3.6-0.5,7.6-0.6,10.6,1c4.9,2.4,7.6,7.6,8.9,11.4c5.1,14.1-4.3,15.5-9.6,16.2l-18.3,2.5L94.9,285.4z"/>
	<path class="st1" d="M87.1,252.7l-0.8-8.9l25.9,3l-1.3-14.2l6.3,0.7l2.1,23.1L87.1,252.7z"/>
	<path class="st1" d="M86.9,220.3l13.7-2.8l-12.3-11.2l0.9-9l18.8,18.7l10.9,3.5l-0.9,8.8l-11.3-3.6l-20.8,5.8L86.9,220.3z"/>
	<path class="st1" d="M111.4,169.5c0.5,3.3,0,7.5-0.3,9.1l-5.4-4.3c0.7-3.8,0.8-6.3,0.1-11l3.2-6.4l24.3,19.6l-3.8,7.6L111.4,169.5z
		"/>
	<path class="st1" d="M136.5,157.8c1.1,1.3,2.9,1.2,4.5-0.7c3-3.6,0.9-7.2-2.6-11.6c0.2,2.5-0.2,5.1-2.5,8c-2.6,3.2-4.6,3.8-6.7,3.8
		c-2.3-0.1-4.5-1.2-6.3-3.5c-4-5-3.6-12.3,1.3-18.3c5.1-6.3,9.5-4.7,11.9-3.4c2.6,1.4,4.9,3.5,7,6.1c2.2,2.8,4.8,7,5.3,11.7
		c0.5,5.1-1.5,8.8-3.9,11.7c-2.5,3-5.3,5.2-8.6,5c-2.2-0.1-3.6-1.7-4.5-2.6L136.5,157.8z M133.8,140.3c-1.3-1.6-3.7-3.1-6.1-0.2
		c-2.1,2.5-1.7,5.4,0,7.5c1.5,1.8,3.8,3,6,0.3C135.9,145.3,135.5,142.4,133.8,140.3z"/>
	<path class="st1" d="M171.6,128.1l0.2,14.1l-5,3.3l-2.1-12.8L171.6,128.1z"/>
	<path class="st1" d="M187.9,119.6c6.1-7.2,11.3-13.5,13.1-17.4c0.4-1.1,0.9-2.4,0.7-3.9c-0.3-2.8-2.4-2.5-3.4-2.2
		c-3.2,1-3.1,3.8-3.1,4.7l-8.2,2.5c-0.1-1-0.2-3.4,1.6-6.7c2.2-4,7.1-5.9,9.6-6.7c4.5-1.4,7.7-1.2,9.9,0.8c1.2,1.1,1.9,2.7,2,4.5
		c0.6,6.5-4.7,12.6-12.2,21.3l13.9-4.3l0.6,6.2l-23.8,7.4L187.9,119.6z"/>
	<path class="st1" d="M222.5,90c3.1-3.5,7.2-4.4,9.9-4.6c5.8-0.4,8,1.8,9.1,3.4c1.7,2.3,2.8,5.7,1.9,11.9
		c-1.3,8.9-5.8,16.5-15.5,17.1c-3.5,0.2-6.9-0.6-8.8-3.1c-2.8-3.7-2.5-9.1-2-12.2C217.4,99.5,218.7,94.1,222.5,90z M228.6,111.9
		c1.4-0.1,2.8-0.8,3.7-2c1.6-2.5,2.4-7.6,2.5-8.3c0.2-1.6,0.6-5.2,0.3-7.4c-0.1-1.1-0.6-3.1-3.4-2.9c-2.5,0.2-4.8,1.4-6.1,10.7
		C224.7,108.6,225,112.2,228.6,111.9z"/>
	<path class="st1" d="M259,96.1c-3,1.5-7.1,2.4-8.7,2.5l2.4-6.5c3.9-0.5,6.2-1.2,10.5-3.4l7.1,1.1l-11,29.2l-8.4-1.3L259,96.1z"/>
	<path class="st1" d="M278,116.2c-0.9,1.5-0.2,3.2,2.1,4c4.4,1.7,7.1-1.4,10.2-6.1c-2.3,0.9-4.9,1.5-8.4,0.1
		c-3.8-1.5-5.1-3.2-5.7-5.1c-0.7-2.2-0.2-4.7,1.3-7c3.4-5.3,10.6-7.3,17.8-4.6c7.6,2.9,7.4,7.5,7,10.2c-0.5,2.9-1.8,5.8-3.6,8.5
		c-2,3-5.1,6.8-9.5,8.7c-4.7,2.1-8.8,1.3-12.3,0c-3.7-1.4-6.6-3.4-7.5-6.5c-0.6-2.1,0.5-3.9,1.1-5.1L278,116.2z M293.7,108.2
		c1.1-1.7,1.8-4.5-1.7-5.8c-3-1.2-5.6,0.1-7.1,2.4c-1.3,2-1.6,4.6,1.6,5.8C289.7,111.7,292.2,110.5,293.7,108.2z"/>

	<!-- A bunch of padded t's -->
	<!--<path class="st1" d="M316.4,108.4l6.9,4.7l-8.9,8.6c1.4-0.1,4.5-0.4,7.9,1.8c1.8,1.2,3.2,2.9,3.4,5.1c0.4,2.7-1.4,4.4-3.7,6.5
		l-9.5,9.1l-6.8-4.6l8.8-8.4c1.4-1.3,4.1-3.8,1.2-5.8c-2.2-1.5-4.3-0.3-5.2,0.2c-0.9,0.6-2,1.6-3.4,2.9l-7.4,7.1l-6.8-4.7
		L316.4,108.4z"/>
	<path class="st1" d="M343.6,130.5l5.6,6.2l-10.7,6.2c1.4,0.2,4.5,0.7,7.2,3.6c1.4,1.6,2.4,3.5,2.1,5.7c-0.3,2.7-2.4,3.9-5.1,5.5
		l-11.4,6.6l-5.5-6.1l10.5-6.1c1.6-0.9,4.8-2.8,2.5-5.3c-1.8-2-4.1-1.3-5.1-1c-1,0.4-2.3,1.1-3.9,2L321,153l-5.6-6.1L343.6,130.5z"
		/>
	<path class="st1" d="M364.8,158.2l4,7.3l-11.8,3.6c1.3,0.5,4.2,1.7,6.2,5.2c1,1.9,1.5,4,0.8,6.1c-0.9,2.5-3.2,3.2-6.3,4.2
		l-12.6,3.8l-4-7.2l11.6-3.5c1.8-0.5,5.4-1.6,3.7-4.6c-1.3-2.3-3.7-2.2-4.7-2.1c-1.1,0.1-2.5,0.5-4.3,1.1l-9.8,3l-4-7.2L364.8,158.2
		z"/>
	<path class="st1" d="M379.1,190.2l2.2,8.1L369,199c1.1,0.8,3.7,2.6,4.8,6.5c0.6,2.1,0.6,4.2-0.6,6.1c-1.4,2.3-3.9,2.4-7,2.6
		l-13.1,0.8l-2.2-7.9l12.1-0.8c1.9-0.1,5.6-0.3,4.7-3.6c-0.7-2.5-3.1-3-4.1-3.2c-1.1-0.2-2.5-0.1-4.4,0l-10.2,0.6l-2.2-8
		L379.1,190.2z"/>
	<path class="st1" d="M385.6,224.6l0.3,8.4l-12.2-2.1c0.9,1,3,3.4,3.2,7.4c0.1,2.2-0.4,4.2-2,5.8c-1.9,1.9-4.4,1.4-7.5,0.9
		l-12.9-2.3l-0.3-8.2l12,2.1c1.9,0.3,5.5,1,5.4-2.4c-0.1-2.6-2.3-3.7-3.2-4c-1-0.4-2.4-0.7-4.3-1l-10.1-1.8l-0.3-8.3L385.6,224.6z"
		/>
	<path class="st1" d="M383.9,259.5l-1.6,8.2l-11.4-4.9c0.7,1.2,2.2,4,1.4,7.9c-0.4,2.1-1.4,4-3.3,5.1c-2.3,1.4-4.6,0.4-7.5-0.9
		l-12.1-5.2l1.6-8.1l11.2,4.8c1.7,0.8,5.1,2.2,5.8-1.1c0.5-2.6-1.4-4.1-2.2-4.7c-0.9-0.6-2.2-1.2-4-2l-9.4-4l1.6-8.1L383.9,259.5z"
		/>
	<path class="st1" d="M374.2,293.1l-3.5,7.6l-9.9-7.4c0.4,1.3,1.2,4.4-0.5,8c-0.9,2-2.3,3.6-4.4,4.2c-2.6,0.8-4.5-0.7-7.1-2.6
		l-10.5-7.8l3.4-7.5l9.7,7.2c1.5,1.1,4.5,3.4,5.9,0.2c1.1-2.4-0.4-4.3-1.1-5c-0.7-0.8-1.9-1.7-3.4-2.8l-8.2-6.1l3.5-7.5L374.2,293.1
		z"/>
	<path class="st1" d="M357,323.6l-5.2,6.6l-7.9-9.5c0,1.4,0.1,4.6-2.4,7.7c-1.3,1.7-3.1,3-5.3,3.1c-2.7,0.2-4.2-1.7-6.3-4.1
		l-8.4-10.1l5.1-6.5l7.8,9.3c1.2,1.5,3.6,4.3,5.7,1.6c1.6-2.1,0.6-4.3,0.1-5.2c-0.5-1-1.4-2.1-2.6-3.5l-6.5-7.8l5.1-6.5L357,323.6z"
		/>
	<path class="st1" d="M333.1,349.2l-6.6,5.2l-5.5-11.1c-0.3,1.3-1,4.5-4.1,6.9c-1.7,1.3-3.7,2.2-5.8,1.8c-2.6-0.4-3.7-2.7-5.1-5.5
		l-5.8-11.8l6.5-5.1l5.4,10.9c0.8,1.7,2.5,5,5.1,2.9c2.1-1.6,1.6-4,1.3-5c-0.3-1.1-0.9-2.4-1.8-4.1l-4.5-9.1l6.5-5.1L333.1,349.2z"
		/>
	<path class="st1" d="M304.1,368.6l-7.6,3.5l-2.8-12c-0.6,1.2-2,4.1-5.6,5.8c-2,0.9-4.1,1.3-6.1,0.4c-2.5-1-3-3.4-3.7-6.5l-3-12.8
		l7.5-3.5l2.8,11.8c0.4,1.8,1.2,5.4,4.3,4c2.4-1.1,2.5-3.6,2.4-4.5c0-1.1-0.3-2.5-0.8-4.3l-2.3-9.9l7.5-3.5L304.1,368.6z"/>
	<path class="st1" d="M271.2,380.8l-8.2,1.7l0.1-12.4c-0.9,1.1-2.9,3.6-6.8,4.4c-2.1,0.4-4.3,0.3-6-1.1c-2.2-1.6-2.1-4.1-2.1-7.2
		l0.1-13.1l8.1-1.7l-0.1,12.1c0,1.9-0.1,5.6,3.3,4.9c2.6-0.5,3.2-2.9,3.4-3.9c0.2-1.1,0.2-2.5,0.3-4.4l0.1-10.2l8.1-1.7L271.2,380.8
		z"/>
	<path class="st1" d="M236.5,384.9l-8.4-0.3l2.9-12c-1.1,0.8-3.6,2.8-7.6,2.7c-2.2-0.1-4.2-0.7-5.6-2.4c-1.7-2-1.1-4.4-0.4-7.5
		l3.1-12.8l8.2,0.3l-2.9,11.8c-0.5,1.8-1.4,5.4,2.1,5.5c2.6,0.1,3.8-2.1,4.2-2.9c0.5-1,0.8-2.4,1.3-4.2l2.4-9.9l8.3,0.3L236.5,384.9
		z"/>
	<path class="st1" d="M201.7,380.9l-8.1-2.2l5.6-11c-1.2,0.6-4.2,1.9-8,0.8c-2.1-0.6-3.9-1.7-4.9-3.6c-1.2-2.4-0.1-4.6,1.4-7.4
		l6-11.7l7.9,2.2l-5.5,10.8c-0.9,1.7-2.6,5,0.7,5.9c2.5,0.7,4.2-1.1,4.8-1.9c0.7-0.9,1.4-2.1,2.2-3.8l4.6-9.1l8,2.2L201.7,380.9z"/>
	<path class="st1" d="M168.9,369.1l-7.3-4l8-9.4c-1.3,0.3-4.5,0.9-8-1c-1.9-1-3.4-2.5-3.9-4.7c-0.6-2.6,1-4.5,3-6.9l8.5-10l7.2,3.9
		l-7.9,9.2c-1.2,1.4-3.6,4.2-0.6,5.9c2.3,1.3,4.3-0.1,5.1-0.7c0.9-0.7,1.8-1.8,3-3.2l6.6-7.8l7.3,3.9L168.9,369.1z"/>
	<path class="st1" d="M139.6,349.8l-6.2-5.6l10-7.3c-1.4-0.1-4.6-0.2-7.5-2.9c-1.6-1.4-2.8-3.3-2.7-5.5c0-2.7,2-4.1,4.5-6l10.6-7.7
		l6.1,5.5l-9.8,7.2c-1.5,1.1-4.5,3.3-2,5.6c2,1.8,4.3,0.9,5.1,0.5c1-0.5,2.2-1.3,3.7-2.4l8.3-6l6.1,5.5L139.6,349.8z"/> -->
</g>
<circle class="st2" cx="237.2" cy="235.1" r="18.8"/>
</svg>
