<?xml version="1.0" encoding="utf-8"?>
<!-- Generator: Adobe Illustrator 23.1.1, SVG Export Plug-In . SVG Version: 6.00 Build 0)  -->
<svg version="1.1" id="Layer_1" xmlns="http://www.w3.org/2000/svg" xmlns:xlink="http://www.w3.org/1999/xlink" x="0px" y="0px"
	 viewBox="0 0 468 468" style="enable-background:new 0 0 468 468;" xml:space="preserve">
<style type="text/css">
	.st0{fill:none;}
	.st1{fill:#000000;}
	.st2{fill:#F1F1F2;}
</style>
<!-- DO NOT use SMIL animations— very low support! -->
<!-- <animateTransform  accumulate="none" additive="replace" attributeName="transform" attributeType="xml" begin="0" calcMode="linear" dur="7s" fill="remove" from="0" repeatCount="indefinite" restart="always" to="360" type="rotate">
	</animateTransform> -->

<g>
	<ellipse class="st0" cx="233.3" cy="233.9" rx="169.8" ry="169.8"/>
	<path class="st1" d="M74.3,89.6l21.9-23.1l5,7.3L87.8,87.9l6.1,8.8l12.4-13.1l5,7.3L98.9,104l9.9,14.4l-8.5,9L74.3,89.6z"/>
	<path class="st1" d="M108.2,59l17.4-11.4c6.8-4.4,9.5-5.7,12.8-4.5c1.7,0.5,4,2,5.9,6.6c1.8,4.7,0.9,7.8-0.4,10.2
		c-1.7,3.3-3.9,5.1-4.9,6l0.1,0.2c7.4-4.6,9.2-1.1,12.7,4.9c1.5,2.7,3.8,7,5.9,9.4l-11.3,7.4c-1.7-2.2-3.2-5.3-5-8.9
		c-2.5-4.8-3.4-6.6-8.1-3.6l-4.4,2.9l6.5,16.7l-10.5,6.9L108.2,59z M125.8,70.5l3.9-2.6c2.3-1.5,3.4-2.3,4.2-3.2
		c2-2.3,1.4-5.3,0.8-6.7c-2-5.3-6.1-2.6-9.1-0.6l-3.9,2.6L125.8,70.5z"/>
	<path class="st1" d="M169.3,28.8l14.5-4.6l21.5,40.3l-13.4,4.3l-3.9-8.2l-17.1,5.5l-2,10.1L157.1,80L169.3,28.8z M184.5,53
		L177,35.6l-0.2,0.1l-4,21.1L184.5,53z"/>
	<path class="st1" d="M216.1,19.5l17.2-0.4l8.9,33.3l6.2-33.7l10.9-0.3l-8.5,45.2L233.9,64L225,29.3l-6.5,35.1l-11,0.3L216.1,19.5z"
		/>
	<path class="st1" d="M277.9,23.5l12.2,3.2l-9,18.1L304,30.4l14.3,3.7l-24,14.2l4.7,27.2l-15-3.9L280.5,46l-11,21.9l-12.2-3.2
		L277.9,23.5z"/>
	<path class="st1" d="M330.7,42.4l11.1,6l-23.9,28.1l17.7,9.6l-5.9,6.9l-28.9-15.6L330.7,42.4z"/>
	<path class="st1" d="M367,65.8l10.1,7.9L342,103.4l-10.1-7.9L367,65.8z"/>
	<path class="st1" d="M388,84.4l11.2,13l-20.1,28l29.9-16.6l7.1,8.2l-40.3,22.2l-11-12.7l21.2-29l-31.2,17.3l-7.2-8.3L388,84.4z"/>
	<path class="st1" d="M434,156.9l6.6,19.6c1.1,3.3,2.6,7.6,1.4,11.4c-1.1,3.9-4.4,6.8-10.4,7.5c-8,0.9-13.1-3.4-14.6-5
		c-3.1-3.1-4.8-8.2-5.6-10.5l-2.7-7.6l-16.4,1.9l-4-11.9L434,156.9z M417.5,171.3l1.8,5.3c1,2.9,2.6,7.6,8.7,6.8
		c5.6-0.6,4.5-4.9,3.3-8.3l-1.8-5.2L417.5,171.3z"/>
	<path class="st1" d="M447.3,216.2l1.4,15.1l-44,12.3l-1.3-14l8.9-2l-1.6-17.9l-9.4-4.1l-1.1-12.4L447.3,216.2z M420.4,225.7
		l18.6-3.5V222l-19.7-8.5L420.4,225.7z"/>
	<path class="st1" d="M446.2,263l-3.7,20.5c-1.4,8-2.4,10.8-5.5,12.4c-1.5,0.9-4.2,1.6-8.8-0.2c-4.7-1.9-6.3-4.7-7.2-7.3
		c-1.2-3.5-1-6.3-1-7.6l-0.2-0.1c-1.8,8.5-5.5,7.5-12.2,5.9c-3-0.8-7.7-2-10.9-2.2l2.4-13.3c2.7,0.3,6,1.3,9.9,2.5
		c5.2,1.5,7.2,2.1,8.1-3.4l0.9-5.2l-16.6-6.8l2.2-12.3L446.2,263z M425.7,268l-0.8,4.6c-0.5,2.7-0.7,4-0.5,5.2
		c0.3,3,2.9,4.6,4.3,5.2c5.2,2.1,6.1-2.6,6.7-6.2l0.8-4.6L425.7,268z"/>
	<path class="st1" d="M432.1,315.7l-5.4,11.5l-16-12.2l10,25.2l-6.2,13.4l-9.6-26.2l-27.6-0.3l6.5-14l25.8,1.2l-19.5-14.7l5.4-11.5
		L432.1,315.7z"/>
</g>
<circle class="st2" cx="233.3" cy="233.9" r="21.2"/>
<g>
	<ellipse class="st0" cx="236.1" cy="235" rx="131.3" ry="131.3"/>
	<path class="st1" d="M82.3,195.7l3.5-12.1c0.6-2.1,1.3-4.6,3.3-6.1c1.9-1.5,4.5-1.8,7.7-0.1c4.3,2.3,5.3,6.3,5.6,7.6
		c0.5,2.6-0.5,5.8-0.8,7.2l-1.3,4.7l8.9,4.8L107,209L82.3,195.7z M95.5,194.3l0.9-3.2c0.5-1.7,1.3-4.6-2-6.4c-3-1.7-3.9,0.9-4.5,3
		l-0.9,3.2L95.5,194.3z"/>
	<path class="st1" d="M92.9,166.7l3.4-6.9l17.5,14l5.5-11l4.3,3.4l-8.9,17.8L92.9,166.7z"/>
	<path class="st1" d="M111.9,136.3l5.7-7.2l24.5,12.9l-5.3,6.7l-4.7-2.8l-6.8,8.7l2.4,5.7l-4.6,6L111.9,136.3z M127.7,143.3
		l-9.7-6.2l-0.1,0.1l5.2,11.9L127.7,143.3z"/>
	<path class="st1" d="M131.2,115.9l10.2,6.3l-1.2-14.2l5.8-5.1l0.9,22.8l4.8,8.6l-5.7,5l-5-8.9l-16.5-8.6L131.2,115.9z"/>
	<path class="st1" d="M163,115.5c0.4,1,1.4,4.1,5.3,1.8c0.6-0.3,3.5-2,2.5-5.1c-0.4-1.2-1.2-1.8-2.9-1.4l-6.3,1.6
		c-1.7,0.4-6.4,1.7-8.3-3.9c-1.5-4.3,0.1-10,7.1-14.1c9.2-5.4,11.5,0,12.4,2.8l-6.6,3.8c-0.3-0.8-1.1-3.8-4.3-1.9
		c-1.9,1.1-2.7,3-2.2,4.6c0.6,1.9,2.2,1.6,3.3,1.3l4.8-1.3c3.5-0.9,7.6-2,9.4,3.7c2,5.9-1.7,11.1-7.5,14.6c-2.5,1.4-6.6,3.3-9.6,1.9
		c-2.5-1.1-3.4-3.7-3.7-4.8L163,115.5z"/>
	<path class="st1" d="M185,90.5l-7.8,2.9l-0.8-5.5l23-8.3l0.8,5.5l-8,2.9l3,22.1l-7.1,2.6L185,90.5z"/>
	<path class="st1" d="M206.5,79.2l20.2-3.3l-0.3,5.4l-12.8,2.1l-0.3,5.8l12-2l-0.3,5.4l-12,2l-0.3,6l13.1-2.2l-0.3,5.5l-20.5,3.4
		L206.5,79.2z"/>
	<path class="st1" d="M244.4,76.6l9.3,0.4l3.7,27.5l-8.5-0.4l-0.5-5.5l-10.9-0.5l-3.2,5.3l-7.5-0.4L244.4,76.6z M247.9,93.5
		L247.3,82l-0.1,0l-6.7,11.2L247.9,93.5z"/>
	<path class="st1" d="M272.1,80.3l11.1,3.1c3.1,0.9,7.2,2.4,9,4.9c2.5,3.6,1.5,8-0.5,11.6c-2.9,5.5-6.9,9-13.2,9.4
		c-3.2,0.2-6.4-0.7-8.2-1.2l-11.2-3.1L272.1,80.3z M269.1,102.4l3.1,0.9c4.8,1.3,8.9,0.3,12-5.5c3.9-7.5-2-9.2-4.3-9.8l-2.8-0.9
		L269.1,102.4z"/>
	<path class="st1" d="M318.2,99.3l16.4,10.3l-3.7,3.8l-10-6.3l-4.5,4.6l9.3,5.8l-3.7,3.8l-9.3-5.8l-7.4,7.6l-6.4-4L318.2,99.3z"/>
	<path class="st1" d="M339,114.2l6,4.9L323,136.4l-6-4.9L339,114.2z"/>
	<path class="st1" d="M350.5,125.1l13.8,15.1l-4.6,2.7l-8.7-9.6l-5.1,2.8l8.3,9.1l-4.7,2.6l-8.3-9.1l-5.1,3l9,9.9l-4.7,2.7l-14-15.4
		L350.5,125.1z"/>
	<path class="st1" d="M368.4,147.6l4.1,6.5l-21,7.8l6.5,10.3l-5.1,1.9l-10.6-16.9L368.4,147.6z"/>
	<path class="st1" d="M381.7,171.6l4.2,10.8c1.2,3,2.4,7.2,1.5,10.1c-1.3,4.2-5.5,6-9.6,6.6c-6.1,1-11.3-0.1-15.4-4.9
		c-2.1-2.4-3.2-5.6-4-7.3l-4.2-10.8L381.7,171.6z M362.2,182.4l1.2,3c1.8,4.6,5.2,7.3,11.5,6.3c8.4-1.3,6.1-7.1,5.3-9.3l-1.1-2.8
		L362.2,182.4z"/>
</g>
</svg>
