<?xml version="1.0" encoding="utf-8"?>
<!-- Generator: Adobe Illustrator 23.1.1, SVG Export Plug-In . SVG Version: 6.00 Build 0)  -->
<svg version="1.1" id="Layer_1" xmlns="http://www.w3.org/2000/svg" xmlns:xlink="http://www.w3.org/1999/xlink" x="0px" y="0px"
	 viewBox="0 0 1477.9 360" style="enable-background:new 0 0 1477.9 360;" xml:space="preserve">
<style type="text/css">
	.st0{clip-path:url(#XMLID_2_);}
	.st1{clip-path:url(#XMLID_3_);fill:#FF9F37;}
	.st2{clip-path:url(#XMLID_3_);fill:#FB5058;}
	.st3{clip-path:url(#XMLID_3_);fill:#C452B4;}
	.st4{clip-path:url(#XMLID_3_);fill:#3B44AC;}
</style>
<g>
	<defs>
		<path id="XMLID_4_" d="M-34.9,216.7L-35,164l-23.9-46.6l11.8-53.2l-0.1-53l-12-51.6l-0.2-76.3l-20.8-90.4l22.1-59.9
			c0,0-25.4-22.3,22.1-30.7c47.5-8.4,56.8,11,99.7-0.2s141.6-2.4,141.6-2.4l159.7-3.8l105.8,5.3l246.4-0.5l224.1-6l135.1-0.3
			l101-0.2l155.7-14.2l129.8-0.3l157.5,19.1c0,0,58.4-14,66.3,16.6s0.2,92.9,0.2,92.9l0.2,110.1l3.6,69.5l0.2,83.5l0.1,61.4
			l-3.3,59.1l3.6,68.6l-3.3,75.1c0,0,20.8,19.4,0.1,37.5c-20.7,18.2-134.8,34.4-134.8,34.4l-133.4,0.3l-123.1,0.3l-304.8,0.7
			l-161.6,0.3l-358.1,0.8l-155.5,0.3l-110,0.2l-166.2,0.4c0,0-70.4,6.5-75.2-10.2s-0.1-46.1-0.1-46.1l-0.1-62.4L-34.9,216.7z"/>
	</defs>
	<clipPath id="XMLID_2_">
		<use xlink:href="#XMLID_4_"  style="overflow:visible;"/>
	</clipPath>
	<g class="st0">
		<defs>
			<polygon id="XMLID_5_" points="-89.1,112.8 151.4,94.4 561.3,87 1082.8,92.4 1376.7,108.2 1612.5,103.5 1696.8,103.3 
				1713.9,108.9 1707.8,176.5 1708,248.6 1196.9,249.6 797.5,256.1 431.4,271.2 160.3,271.8 -15.6,262.1 -84,272.3 			"/>
		</defs>
		<use xlink:href="#XMLID_5_"  style="overflow:visible;fill:#FFE700;"/>
		<clipPath id="XMLID_3_">
			<use xlink:href="#XMLID_5_"  style="overflow:visible;"/>
		</clipPath>
		<polygon class="st1" points="-79.5,133.8 27.6,127.9 151.5,139.6 350.8,125.8 620.7,138.6 853,130.4 1244.2,126.7 1585.6,117.6 
			1711.7,117.3 1696.9,159.3 1567.1,159.5 1233.9,150.7 878.1,162.6 582.2,163.3 433.2,163.6 236.6,164 52.5,162.8 -55.1,163 		"/>
		<polygon class="st2" points="-59.2,193 -55.1,163 751.9,162.9 1014.8,158.1 1233.9,150.7 1696.9,159.3 1697,192 143.6,204.5 		"/>
		<polygon class="st3" points="-57.1,220.6 -59.2,193 468.5,200.5 998.6,195.1 1260.9,191.7 1614.8,198 1714.1,186.5 1707.9,216.8 
			1540.3,217.1 1279.6,217.7 923,218.5 540.9,219.3 151.7,226.5 		"/>
		<path class="st4" d="M-57.7,265c0-5.6-2.2-44.5-2.2-44.5l1765-3.8l-10.8,57.2L-37.6,292.1L-57.7,265z"/>
	</g>
</g>
</svg>
