<?xml version="1.0" encoding="utf-8"?>
<!-- Generator: Adobe Illustrator 23.1.1, SVG Export Plug-In . SVG Version: 6.00 Build 0)  -->
<svg version="1.1" id="Layer_1" xmlns="http://www.w3.org/2000/svg" xmlns:xlink="http://www.w3.org/1999/xlink" x="0px" y="0px"
	 viewBox="0 0 468 468" style="enable-background:new 0 0 468 468;" xml:space="preserve">
<style type="text/css">
	.st0{fill:none;}
	.st1{fill:#3C2415;}
	.st2{fill:#F1F1F2;}
</style>
<!-- DO NOT use SMIL animations— very low support! -->
<!-- <animateTransform  accumulate="none" additive="replace" attributeName="transform" attributeType="xml" begin="0" calcMode="linear" dur="4s" fill="remove" from="360" repeatCount="indefinite" restart="always" to="0" type="rotate">
	</animateTransform> -->
<g>
	
		<ellipse transform="matrix(0.7071 -0.7071 0.7071 0.7071 -97.5977 234.2782)" class="st0" cx="234" cy="234.9" rx="143.7" ry="143.7"/>
	<path class="st1" d="M81,228.9c1.2,0.3,4.1,1.2,4.3-1.6c0.2-3-2.7-3.7-4.2-4.1l-19.5-5.2l0.4-8.3l19.2,5.1c1.2,0.3,4.8,1.4,6.9,3.9
		c2.8,3.3,3.1,7.4,3,10.2c-0.2,3.5-1.2,7.1-4.4,8.5c-2,0.8-4.6,0.1-6.1-0.3L81,228.9z"/>
	<path class="st1" d="M66.3,191.8l16,7.9c1.5,0.7,3,1.3,4.3,1.1c1.8-0.3,3-1.9,3.4-3.8c1.3-5-2.4-7.6-5.1-8.9l-15.8-7.8l2-7.7
		l15.6,7.7c3,1.5,6.1,3.5,7.7,6.3c2.5,4.3,1.8,9.8,0.9,13.4c-3.4,13.5-11.4,9.6-15.8,7.4l-15.4-7.6L66.3,191.8z"/>
	<path class="st1" d="M76.2,163.5l3.6-7.5l19.2,14.7l5.7-11.9l4.7,3.6l-9.3,19.4L76.2,163.5z"/>
	<path class="st1" d="M90.2,138.5l12.4,3.6l-5.3-14.5l4.6-7l7.4,23.4l7.5,7.5l-4.5,6.9l-7.7-7.8L85,146.4L90.2,138.5z"/>
	<path class="st1" d="M130.5,106.8c-0.8,3-2.8,6.4-3.6,7.6l-3-5.7c2-3,3-5,4.1-9.3l5.1-4.2l13.4,25.6l-6.1,5L130.5,106.8z"/>
	<path class="st1" d="M155.8,105.8c0.5,1.5,2.1,2,4.1,0.9c3.7-2.2,3.1-5.9,1.5-10.9c-0.7,2.2-1.8,4.4-4.8,6.1
		c-3.3,1.9-5.3,1.8-7,1.1c-2-0.8-3.5-2.6-4.3-5.1c-1.8-5.6,0.9-11.9,7.1-15.4c6.5-3.8,9.8-0.9,11.4,0.9c1.8,2,3.1,4.7,4,7.6
		c1,3.2,1.9,7.6,0.7,11.9c-1.3,4.6-4.2,7.1-7.2,8.8c-3.1,1.8-6.3,2.8-9.1,1.6c-1.8-0.8-2.6-2.6-3-3.7L155.8,105.8z M159.2,89.7
		c-0.6-1.8-2.2-3.9-5.2-2.2c-2.6,1.5-3.2,4.1-2.4,6.5c0.7,2.1,2.3,3.8,5.1,2.2C159.4,94.7,160,92.1,159.2,89.7z"/>
	<path class="st1" d="M182.6,94.1l-2.5,12.8L175,109l0.5-12L182.6,94.1z"/>
	<path class="st1" d="M199,89.1c6.5-5.9,12.1-10.9,14.3-14.3c0.5-1,1.1-2.1,1.2-3.5c0.1-2.6-1.9-2.6-2.9-2.4c-3,0.5-3.3,3.1-3.5,3.9
		l-7.8,1.3c0.1-0.9,0.3-3.2,2.3-5.9c2.5-3.3,7.3-4.5,9.7-4.9c4.3-0.7,7.3-0.1,9,2c1,1.2,1.4,2.8,1.3,4.4c-0.3,6-5.9,11-13.9,18
		l13.3-2.2l-0.3,5.7l-22.8,3.8L199,89.1z"/>
	<path class="st1" d="M233.4,65.7c3.1-3,7-3.5,9.5-3.5c5.4,0.1,7.3,2.2,8.1,3.8c1.4,2.3,2.1,5.5,0.8,11.1
		c-1.9,8.1-6.6,14.8-15.7,14.6c-3.3-0.1-6.3-1.1-7.9-3.6c-2.3-3.6-1.6-8.6-0.9-11.4C228.1,74.1,229.7,69.2,233.4,65.7z M237.5,86.5
		c1.3,0,2.7-0.6,3.5-1.6c1.7-2.2,2.8-6.8,2.9-7.5c0.3-1.4,1-4.7,0.8-6.8c0-1-0.3-2.9-2.9-2.9c-2.3,0-4.5,0.9-6.4,9.4
		C234,83.1,234.1,86.4,237.5,86.5z"/>
	<path class="st1" d="M266.2,73.4c-2.8,1.3-6.7,2-8.1,2.1l2.5-5.9c3.6-0.4,5.8-0.9,9.8-2.8l6.5,1.2l-11.1,26.7l-7.7-1.4L266.2,73.4z
		"/>
	<path class="st1" d="M283.2,92.2c-0.8,1.4-0.2,2.9,2,3.7c4.1,1.5,6.5-1.4,9.3-5.8c-2.2,0.9-4.6,1.4-7.8,0.2
		c-3.6-1.3-4.8-2.9-5.4-4.7c-0.6-2-0.3-4.3,1.1-6.5c3.1-5,9.7-6.9,16.4-4.4c7,2.6,7,6.9,6.6,9.3c-0.4,2.7-1.6,5.4-3.2,7.9
		c-1.8,2.8-4.6,6.3-8.7,8.2c-4.3,2-8.1,1.3-11.4,0.1c-3.4-1.3-6.1-3-7-6c-0.5-1.9,0.4-3.6,0.9-4.7L283.2,92.2z M297.7,84.5
		c1-1.6,1.6-4.2-1.7-5.4c-2.8-1-5.2,0.2-6.5,2.3c-1.2,1.8-1.4,4.3,1.6,5.4C294,87.8,296.4,86.7,297.7,84.5z"/>
</g>
<circle class="st2" cx="233.3" cy="233.9" r="21.2"/>
<g>
	
		<ellipse transform="matrix(0.7071 -0.7071 0.7071 0.7071 -98.1248 233.0058)" class="st0" cx="232.2" cy="234.9" rx="103.7" ry="103.7"/>
	<path class="st1" d="M119.9,171.5l4.1-7.5l24.4,8l-3.8,6.9l-4.8-1.8L135,186l3.1,4.9l-3.3,6.1L119.9,171.5z M135.5,175.4l-9.8-4.2
		l0,0.1l6.6,10.1L135.5,175.4z"/>
	<path class="st1" d="M135.1,149.9l8-8.5c3.1-3.3,4.5-4.3,6.4-4.1c1,0.1,2.5,0.5,4.1,2.8c1.6,2.3,1.5,4.1,1.1,5.6
		c-0.5,2-1.5,3.3-1.9,3.9l0.1,0.1c3.5-3.5,4.9-1.8,7.6,1c1.1,1.3,3,3.3,4.4,4.4l-5.2,5.5c-1.2-1-2.4-2.5-3.9-4.2
		c-2-2.3-2.7-3.2-4.9-0.9l-2,2.1l5.7,8.3l-4.8,5.1L135.1,149.9z M146.2,153.9l1.8-1.9c1.1-1.1,1.6-1.7,1.9-2.3
		c0.8-1.5,0.1-3.1-0.4-3.8c-1.8-2.6-3.7-0.6-5.1,0.8l-1.8,1.9L146.2,153.9z"/>
	<path class="st1" d="M163.7,131.6l-6.4,4.3l-1.9-4.7l18.8-12.6l1.9,4.7l-6.5,4.4l7.7,19.2l-5.9,3.9L163.7,131.6z"/>
	<path class="st1" d="M185.8,136.3l-1,11.2l-4.2,2.2l-0.6-10.3L185.8,136.3z"/>
	<path class="st1" d="M201,109.4l10.9-1.8l3.4,16.8l4.6-18.1l10.9-1.9l-1.1,25.8l-6.5,1.1l1.2-21.7l-6.8,22.7l-6.2,1l-4.8-20.9
		l-0.8,21.8l-6,1L201,109.4z"/>
	<path class="st1" d="M248.8,107l-5,14.5c-0.4,1.3-0.8,2.7-0.5,3.8c0.5,1.5,1.9,2.3,3.6,2.5c4.4,0.6,6.2-2.9,7.1-5.3l4.9-14.3
		l6.8,0.9l-4.9,14.1c-0.9,2.7-2.4,5.6-4.5,7.2c-3.4,2.6-8.1,2.6-11.3,2.2c-11.8-1.5-9.4-8.7-8-12.7l4.9-13.9L248.8,107z"/>
	<path class="st1" d="M270.9,130.1c-0.5,0.9-2.1,3.4,1.7,4.9c0.6,0.2,3.5,1.4,5.1-1.1c0.7-1,0.7-1.9-0.7-2.9l-4.8-3.6
		c-1.4-1-4.9-3.7-1.9-8.2c2.3-3.5,7.3-5.6,14.4-2.8c9.2,3.6,6.6,8.3,5,10.7l-6.6-2.6c0.4-0.7,2-3-1.1-4.2c-1.9-0.7-3.7-0.2-4.6,1
		c-1.1,1.6,0.1,2.5,0.9,3.1l3.7,2.8c2.6,2,5.8,4.4,2.7,8.9c-3.2,4.8-9.1,5.2-15,2.9c-2.4-1-6.2-2.9-6.8-5.9
		c-0.6-2.4,0.8-4.5,1.4-5.5L270.9,130.1z"/>
	<path class="st1" d="M300.3,125.4l6.2,3.7L288.8,148l-6.2-3.7L300.3,125.4z"/>
	<path class="st1" d="M318.5,149.6c1.9-1.8,1.3-3.5-0.2-4.8c-3.2-2.8-7.3-1.3-11.1,1.6c-1.3,0.9-6.5,4.9-2.4,8.4
		c2.8,2.4,5.3,1,6.2,0.5l5.5,4.8c-6.5,4.8-13.1-0.1-15.6-2.3c-1.8-1.6-4.7-4.7-4.5-8.4c0.3-3.6,3.3-6.4,5.4-8
		c2.8-2.1,6.3-3.7,10.3-3.8c4.4-0.1,7.5,1.6,10.3,4.1c3.1,2.7,4.6,5.4,4.4,7.9c-0.2,2.7-2.1,4.1-2.8,4.7L318.5,149.6z"/>
	<path class="st1" d="M320.6,171l-11.2,1l-3-3.7l10-2.5L320.6,171z"/>
	<path class="st1" d="M351.2,185.3l3.3,7.9l-21.4,14.1L330,200l4.4-2.6l-4-9.3l-5.8-0.6l-2.7-6.4L351.2,185.3z M338.5,195l9.4-5.1
		l0-0.1l-12-1.1L338.5,195z"/>
	<path class="st1" d="M359,210.5l1.3,9.6l-18,7.1l19.2,1.3l0.8,6.1l-25.8-1.8l-1.3-9.4l18.8-7.2l-20-1.4l-0.8-6.1L359,210.5z"/>
	<path class="st1" d="M361,245l-1.4,10.6c-0.4,3-1.2,6.9-3.3,8.9c-2.9,2.8-7.1,2.4-10.7,1.2c-5.4-1.9-9.2-5.1-10.4-10.8
		c-0.6-2.9-0.2-6,0-7.7l1.4-10.7L361,245z M340.4,245.2l-0.4,3c-0.6,4.6,1,8.2,6.6,10.3c7.4,2.6,8.1-3.1,8.4-5.2l0.4-2.7
		L340.4,245.2z"/>
	<path class="st1" d="M332.3,284.8c-0.8-0.6-3.1-2.5-5.1,1.2c-0.3,0.5-1.7,3.3,0.5,5.2c0.9,0.8,1.8,0.9,3-0.3l4.1-4.4
		c1.2-1.2,4.2-4.5,8.4-1c3.2,2.7,4.8,7.9,1.3,14.6c-4.6,8.7-9,5.6-11.1,3.9l3.3-6.3c0.6,0.5,2.7,2.3,4.3-0.6
		c0.9-1.8,0.6-3.7-0.5-4.7c-1.4-1.2-2.5-0.2-3.2,0.6l-3.2,3.4c-2.3,2.4-4.9,5.3-9.1,1.8c-4.4-3.7-4.2-9.6-1.2-15.2
		c1.2-2.3,3.5-5.8,6.6-6.2c2.5-0.3,4.4,1.3,5.3,2L332.3,284.8z"/>
	<path class="st1" d="M329.4,315.6c-0.2,5-3.3,8.9-4.5,10.3c-6.7,7.5-12.9,3.5-16.6-1.6c-6.1-8.3-3.2-16.2,0.9-20.7
		c4.5-5,10.9-6.6,16.6,1.2C326.7,306.2,329.5,310.6,329.4,315.6z M312.1,308c-3.3,3.7-1.1,8.2,1,11.1c2.1,2.9,3.7,3.7,4.9,4.1
		c1.5,0.4,2.9-0.5,3.9-1.6c3.1-3.4,1.5-7.7-1.1-11.3C318.4,306.9,315.2,304.5,312.1,308z"/>
	<path class="st1" d="M301.7,343.6l-5.4-14.4c-0.5-1.3-1.1-2.6-2.1-3.2c-1.3-0.8-2.9-0.6-4.4,0.4c-3.7,2.4-2.9,6.2-2,8.6l5.4,14.1
		l-5.7,3.7l-5.3-14c-1-2.7-1.8-5.8-1.1-8.4c1-4.2,4.6-7.2,7.2-8.9c10-6.5,12.8,0.6,14.3,4.6l5.2,13.8L301.7,343.6z"/>
	<path class="st1" d="M278.2,355.5l-6.7,2.4l-2.7-20.6l-10.7,3.8l-0.7-5l17.4-6.2L278.2,355.5z"/>
</g>
</svg>
